<?xml version="1.0" encoding="UTF-8" standalone="no"?>
<!DOCTYPE svg PUBLIC "-//W3C//DTD SVG 1.1//EN" "http://www.w3.org/Graphics/SVG/1.1/DTD/svg11.dtd">
<svg width="100%" height="100%" viewBox="0 0 1920 1080" version="1.1" xmlns="http://www.w3.org/2000/svg" xmlns:xlink="http://www.w3.org/1999/xlink" xml:space="preserve" xmlns:serif="http://www.serif.com/" style="fill-rule:evenodd;clip-rule:evenodd;stroke-linejoin:round;stroke-miterlimit:2;">
    <g id="Artboard1" transform="matrix(2,0,0,2,0,0)">
        <rect x="0" y="0" width="960" height="540" style="fill:none;"/>
        <clipPath id="_clip1">
            <rect x="0" y="0" width="960" height="540"/>
        </clipPath>
        <g clip-path="url(#_clip1)">
            <g transform="matrix(0.5,0,0,0.5,0,0)">
                <g transform="matrix(1.24475,0,0,1.22232,-85.7788,-39.8309)">
                    <rect x="68.912" y="32.586" width="772.042" height="442.599" style="fill:rgb(66,149,83);"/>
                </g>
                <g transform="matrix(0.450896,0.307823,-0.310709,0.455124,525.083,-29.4334)">
                    <path d="M293.435,136.432L433.806,365.61L153.064,365.61L293.435,136.432Z" style="fill:rgb(100,193,119);"/>
                </g>
                <g transform="matrix(0.269415,-0.157432,0.152505,0.260984,106.986,316.214)">
                    <path d="M293.435,136.432L433.806,365.61L153.064,365.61L293.435,136.432Z" style="fill:rgb(100,193,119);"/>
                </g>
                <g transform="matrix(-0.0120215,-0.172085,0.170625,-0.0173948,219.075,186.348)">
                    <path d="M293.435,136.432L433.806,365.61L153.064,365.61L293.435,136.432Z" style="fill:rgb(100,193,119);"/>
                </g>
                <g transform="matrix(-0.223981,-0.0825499,0.0885638,-0.234189,824.016,489.914)">
                    <path d="M293.435,136.432L433.806,365.61L153.064,365.61L293.435,136.432Z" style="fill:rgb(100,193,119);"/>
                </g>
                <circle cx="159.543" cy="182.302" r="44.437" style="fill:rgb(100,193,119);"/>
                <circle cx="481.074" cy="118.528" r="19.337" style="fill:rgb(100,193,119);"/>
                <circle cx="113.93" cy="425.717" r="24.606" style="fill:rgb(100,193,119);"/>
                <circle cx="485.55" cy="307.062" r="23.813" style="fill:rgb(100,193,119);"/>
                <circle cx="840.878" cy="69.973" r="18.766" style="fill:rgb(100,193,119);"/>
                <circle cx="398.893" cy="491.121" r="20.232" style="fill:rgb(100,193,119);"/>
                <g transform="matrix(0.748773,0.662827,-0.662827,0.748773,10.3634,-112.115)">
                    <rect x="122.626" y="41.18" width="53.714" height="53.714" style="fill:rgb(100,193,119);"/>
                </g>
                <g transform="matrix(0.965926,0.258819,-0.258819,0.965926,76.6984,-89.1342)">
                    <rect x="340.345" y="210.199" width="73.05" height="73.05" style="fill:rgb(100,193,119);"/>
                </g>
                <g transform="matrix(0.347316,-0.451926,0.451926,0.347316,228.194,578.083)">
                    <rect x="599.871" y="384.678" width="106.442" height="106.442" style="fill:rgb(100,193,119);"/>
                </g>
                <g transform="matrix(0.707107,0.707107,-0.707107,0.707107,376.86,-525.589)">
                    <rect x="780.796" y="150.04" width="84.151" height="84.151" style="fill:rgb(100,193,119);"/>
                </g>
            </g>
            <g transform="matrix(0.5,0,0,0.5,480,0)">
                <g transform="matrix(1.24475,0,0,1.22232,-85.7788,-39.8309)">
                    <rect x="68.912" y="32.586" width="772.042" height="442.599" style="fill:rgb(66,149,83);"/>
                </g>
                <g transform="matrix(0.450896,0.307823,-0.310709,0.455124,525.083,-29.4334)">
                    <path d="M293.435,136.432L433.806,365.61L153.064,365.61L293.435,136.432Z" style="fill:rgb(100,193,119);"/>
                </g>
                <g transform="matrix(0.269415,-0.157432,0.152505,0.260984,106.986,316.214)">
                    <path d="M293.435,136.432L433.806,365.61L153.064,365.61L293.435,136.432Z" style="fill:rgb(100,193,119);"/>
                </g>
                <g transform="matrix(-0.0120215,-0.172085,0.170625,-0.0173948,219.075,186.348)">
                    <path d="M293.435,136.432L433.806,365.61L153.064,365.61L293.435,136.432Z" style="fill:rgb(100,193,119);"/>
                </g>
                <g transform="matrix(-0.223981,-0.0825499,0.0885638,-0.234189,824.016,489.914)">
                    <path d="M293.435,136.432L433.806,365.61L153.064,365.61L293.435,136.432Z" style="fill:rgb(100,193,119);"/>
                </g>
                <circle cx="159.543" cy="182.302" r="44.437" style="fill:rgb(100,193,119);"/>
                <circle cx="481.074" cy="118.528" r="19.337" style="fill:rgb(100,193,119);"/>
                <circle cx="113.93" cy="425.717" r="24.606" style="fill:rgb(100,193,119);"/>
                <circle cx="485.55" cy="307.062" r="23.813" style="fill:rgb(100,193,119);"/>
                <circle cx="840.878" cy="69.973" r="18.766" style="fill:rgb(100,193,119);"/>
                <circle cx="398.893" cy="491.121" r="20.232" style="fill:rgb(100,193,119);"/>
                <g transform="matrix(0.748773,0.662827,-0.662827,0.748773,10.3634,-112.115)">
                    <rect x="122.626" y="41.18" width="53.714" height="53.714" style="fill:rgb(100,193,119);"/>
                </g>
                <g transform="matrix(0.965926,0.258819,-0.258819,0.965926,76.6984,-89.1342)">
                    <rect x="340.345" y="210.199" width="73.05" height="73.05" style="fill:rgb(100,193,119);"/>
                </g>
                <g transform="matrix(0.347316,-0.451926,0.451926,0.347316,228.194,578.083)">
                    <rect x="599.871" y="384.678" width="106.442" height="106.442" style="fill:rgb(100,193,119);"/>
                </g>
                <g transform="matrix(0.707107,0.707107,-0.707107,0.707107,376.86,-525.589)">
                    <rect x="780.796" y="150.04" width="84.151" height="84.151" style="fill:rgb(100,193,119);"/>
                </g>
            </g>
            <g transform="matrix(0.5,0,0,0.5,0,270)">
                <g transform="matrix(1.24475,0,0,1.22232,-85.7788,-39.8309)">
                    <rect x="68.912" y="32.586" width="772.042" height="442.599" style="fill:rgb(66,149,83);"/>
                </g>
                <g transform="matrix(0.450896,0.307823,-0.310709,0.455124,525.083,-29.4334)">
                    <path d="M293.435,136.432L433.806,365.61L153.064,365.61L293.435,136.432Z" style="fill:rgb(100,193,119);"/>
                </g>
                <g transform="matrix(0.269415,-0.157432,0.152505,0.260984,106.986,316.214)">
                    <path d="M293.435,136.432L433.806,365.61L153.064,365.61L293.435,136.432Z" style="fill:rgb(100,193,119);"/>
                </g>
                <g transform="matrix(-0.0120215,-0.172085,0.170625,-0.0173948,219.075,186.348)">
                    <path d="M293.435,136.432L433.806,365.61L153.064,365.61L293.435,136.432Z" style="fill:rgb(100,193,119);"/>
                </g>
                <g transform="matrix(-0.223981,-0.0825499,0.0885638,-0.234189,824.016,489.914)">
                    <path d="M293.435,136.432L433.806,365.61L153.064,365.61L293.435,136.432Z" style="fill:rgb(100,193,119);"/>
                </g>
                <circle cx="159.543" cy="182.302" r="44.437" style="fill:rgb(100,193,119);"/>
                <circle cx="481.074" cy="118.528" r="19.337" style="fill:rgb(100,193,119);"/>
                <circle cx="113.93" cy="425.717" r="24.606" style="fill:rgb(100,193,119);"/>
                <circle cx="485.55" cy="307.062" r="23.813" style="fill:rgb(100,193,119);"/>
                <circle cx="840.878" cy="69.973" r="18.766" style="fill:rgb(100,193,119);"/>
                <circle cx="398.893" cy="491.121" r="20.232" style="fill:rgb(100,193,119);"/>
                <g transform="matrix(0.748773,0.662827,-0.662827,0.748773,10.3634,-112.115)">
                    <rect x="122.626" y="41.18" width="53.714" height="53.714" style="fill:rgb(100,193,119);"/>
                </g>
                <g transform="matrix(0.965926,0.258819,-0.258819,0.965926,76.6984,-89.1342)">
                    <rect x="340.345" y="210.199" width="73.05" height="73.05" style="fill:rgb(100,193,119);"/>
                </g>
                <g transform="matrix(0.347316,-0.451926,0.451926,0.347316,228.194,578.083)">
                    <rect x="599.871" y="384.678" width="106.442" height="106.442" style="fill:rgb(100,193,119);"/>
                </g>
                <g transform="matrix(0.707107,0.707107,-0.707107,0.707107,376.86,-525.589)">
                    <rect x="780.796" y="150.04" width="84.151" height="84.151" style="fill:rgb(100,193,119);"/>
                </g>
            </g>
            <g transform="matrix(0.5,0,0,0.5,480,270)">
                <g transform="matrix(1.24475,0,0,1.22232,-85.7788,-39.8309)">
                    <rect x="68.912" y="32.586" width="772.042" height="442.599" style="fill:rgb(66,149,83);"/>
                </g>
                <g transform="matrix(0.450896,0.307823,-0.310709,0.455124,525.083,-29.4334)">
                    <path d="M293.435,136.432L433.806,365.61L153.064,365.61L293.435,136.432Z" style="fill:rgb(100,193,119);"/>
                </g>
                <g transform="matrix(0.269415,-0.157432,0.152505,0.260984,106.986,316.214)">
                    <path d="M293.435,136.432L433.806,365.61L153.064,365.61L293.435,136.432Z" style="fill:rgb(100,193,119);"/>
                </g>
                <g transform="matrix(-0.0120215,-0.172085,0.170625,-0.0173948,219.075,186.348)">
                    <path d="M293.435,136.432L433.806,365.61L153.064,365.61L293.435,136.432Z" style="fill:rgb(100,193,119);"/>
                </g>
                <g transform="matrix(-0.223981,-0.0825499,0.0885638,-0.234189,824.016,489.914)">
                    <path d="M293.435,136.432L433.806,365.61L153.064,365.61L293.435,136.432Z" style="fill:rgb(100,193,119);"/>
                </g>
                <circle cx="159.543" cy="182.302" r="44.437" style="fill:rgb(100,193,119);"/>
                <circle cx="481.074" cy="118.528" r="19.337" style="fill:rgb(100,193,119);"/>
                <circle cx="113.93" cy="425.717" r="24.606" style="fill:rgb(100,193,119);"/>
                <circle cx="485.55" cy="307.062" r="23.813" style="fill:rgb(100,193,119);"/>
                <circle cx="840.878" cy="69.973" r="18.766" style="fill:rgb(100,193,119);"/>
                <circle cx="398.893" cy="491.121" r="20.232" style="fill:rgb(100,193,119);"/>
                <g transform="matrix(0.748773,0.662827,-0.662827,0.748773,10.3634,-112.115)">
                    <rect x="122.626" y="41.18" width="53.714" height="53.714" style="fill:rgb(100,193,119);"/>
                </g>
                <g transform="matrix(0.965926,0.258819,-0.258819,0.965926,76.6984,-89.1342)">
                    <rect x="340.345" y="210.199" width="73.05" height="73.05" style="fill:rgb(100,193,119);"/>
                </g>
                <g transform="matrix(0.347316,-0.451926,0.451926,0.347316,228.194,578.083)">
                    <rect x="599.871" y="384.678" width="106.442" height="106.442" style="fill:rgb(100,193,119);"/>
                </g>
                <g transform="matrix(0.707107,0.707107,-0.707107,0.707107,376.86,-525.589)">
                    <rect x="780.796" y="150.04" width="84.151" height="84.151" style="fill:rgb(100,193,119);"/>
                </g>
            </g>
        </g>
    </g>
</svg>
