<?xml version="1.0" encoding="UTF-8" standalone="no"?>
<!DOCTYPE svg PUBLIC "-//W3C//DTD SVG 1.1//EN" "http://www.w3.org/Graphics/SVG/1.1/DTD/svg11.dtd">
<svg width="100%" height="100%" viewBox="0 0 128 128" version="1.1" xmlns="http://www.w3.org/2000/svg" xmlns:xlink="http://www.w3.org/1999/xlink" xml:space="preserve" xmlns:serif="http://www.serif.com/" style="fill-rule:evenodd;clip-rule:evenodd;stroke-linecap:round;stroke-linejoin:round;stroke-miterlimit:1.5;">
    <g transform="matrix(1.16646,0,0,1.34183,-11.9495,-38.5658)">
        <path d="M64.679,36.838L66.447,54.571L70.104,44.326L69.94,55.052L77.925,38.662L73.303,56.002L80.423,47.24L76.454,57.397L89.874,43.955L79.315,59.204L89.2,52.784L81.815,61.378L99.357,52.198L83.894,63.865L95.578,60.415L85.499,66.604L105.446,62.586L86.592,69.528L98.93,69.385L87.145,72.564L107.544,74.101L87.145,75.638L98.93,78.817L86.592,78.674L105.446,85.616L85.499,81.598L95.578,87.787L83.894,84.337L99.357,96.003L81.815,86.824L89.2,95.417L79.315,88.997L89.874,104.247L76.454,90.804L80.423,100.961L73.303,92.2L77.925,109.54L69.94,93.15L70.104,103.876L66.447,93.631L64.679,111.363L62.911,93.631L59.254,103.876L59.418,93.15L51.433,109.54L56.055,92.2L48.935,100.961L52.904,90.804L39.484,104.247L50.044,88.997L40.158,95.417L47.543,86.824L30.001,96.003L45.465,84.337L33.78,87.787L43.859,81.598L23.912,85.616L42.766,78.674L30.428,78.817L42.213,75.638L21.814,74.101L42.213,72.564L30.428,69.385L42.766,69.528L23.912,62.586L43.859,66.604L33.78,60.415L45.465,63.865L30.001,52.198L47.543,61.378L40.158,52.784L50.044,59.204L39.484,43.955L52.904,57.397L48.935,47.24L56.055,56.002L51.433,38.662L59.418,55.052L59.254,44.326L62.911,54.571L64.679,36.838Z" style="fill:rgb(255,208,0);stroke:rgb(200,163,0);stroke-width:0.8px;"/>
    </g>
</svg>
